<svg xmlns="http://www.w3.org/2000/svg" viewBox="0 0 547.12 424.96"><defs><style>.cls-1{fill:#fdce4e;}.cls-1,.cls-2,.cls-3{stroke:#000;stroke-miterlimit:10;stroke-width:5px;}.cls-2{fill:#e6b860;}.cls-3{fill:#de7f43;}</style></defs><title>logo2</title><g id="Layer_2" data-name="Layer 2"><g id="Moustache2"><path d="M275.42,359.5a27.45,27.45,0,0,0-1,17.17c2.06,7.57,7.77,13.86,14.68,17.4,8.43,4.33,17.24,2.92,26.33,3.58,5.2.39,10.65.83,15.82,1.73a71.75,71.75,0,0,1,29.05,11.67,88.28,88.28,0,0,1,8.12,6.57c2.41,2.2,4.63,5.35,7.28,7.14a18,18,0,0,0-.17-4.2c-1-24.1-15.71-47.47-35.71-60.4a83,83,0,0,0-8.63-4.86q-1.8-.89-3.63-1.68c-11-4.76-22.93-8.42-35-6.72C284.62,348,278.54,351.82,275.42,359.5Z"/><path d="M268.05,359.7a27.35,27.35,0,0,1,1,17.16c-2.07,7.58-7.77,13.86-14.69,17.41-8.43,4.33-17.24,2.92-26.32,3.58-5.21.38-10.65.83-15.83,1.73a71.51,71.51,0,0,0-29,11.67,84.13,84.13,0,0,0-8.12,6.57c-2.41,2.2-4.64,5.35-7.28,7.14-.28-1.31.11-2.85.16-4.21,1-24.1,15.71-47.46,35.71-60.39a81.34,81.34,0,0,1,8.64-4.86q1.78-.88,3.63-1.68c11-4.77,22.93-8.43,35-6.72C258.86,348.22,264.94,352,268.05,359.7Z"/></g><g id="Hat2"><path class="cls-1" d="M366.51,184q-92.92,51.22-185.91.05h0a.06.06,0,0,1,0,0c4.56-35.38,11-71.15,24-104.52C211.76,61,221.19,42.78,234.74,28c.58-.63,1.16-1.26,1.76-1.88s1.23-1.28,1.86-1.91l2-1.93,2.05-1.93c.71-.65,1.42-1.29,2.14-1.92s1.47-1.27,2.22-1.89,1.52-1.24,2.29-1.85,1.56-1.2,2.35-1.79,1.6-1.15,2.41-1.71,1.63-1.1,2.46-1.62,1.66-1,2.51-1.52c4.79-2.78,10.61-6,16.32-5.53,3.77.31,7.1,2.23,10.32,4a100.1,100.1,0,0,1,9.48,5.71A115.77,115.77,0,0,1,312.38,28c13.55,14.76,23,32.93,30.17,51.5C355.48,112.89,362,148.66,366.51,184Z"/><path class="cls-2" d="M540,203.37A83.47,83.47,0,0,1,528.92,227c-9.92,14.41-24.52,24.54-40.43,31.4-37.89,16.34-82.11,18.38-123,19.95q-45.78,1.75-91.57,1.66h-.66q-45.78.09-91.57-1.66c-40.92-1.57-85.14-3.61-123-19.95-15.91-6.86-30.51-17-40.43-31.4A83.47,83.47,0,0,1,7.08,203.37c-.75-2.54-5.3-29.46-4.48-29.28,50.78,11.11,109.64,15.12,178,10q93,51.14,185.91-.05a.09.09,0,0,1,0,.05c68.36,5.12,127.22,1.11,178-10C545.34,173.91,540.79,200.83,540,203.37Z"/><path class="cls-3" d="M543.35,184.67c-1.2,7.78-2.88,17.24-3.31,18.7A83.47,83.47,0,0,1,528.92,227c-9.92,14.41-24.52,24.54-40.43,31.4-37.89,16.34-82.11,18.38-123,19.95q-45.78,1.75-91.57,1.66h-.66q-45.78.09-91.57-1.66c-40.92-1.57-85.14-3.61-123-19.95-15.91-6.86-30.51-17-40.43-31.4A83.47,83.47,0,0,1,7.08,203.37c-.43-1.46-2.11-10.92-3.31-18.7A82.65,82.65,0,0,0,13.18,203c10.11,14.69,25,25,41.22,32,38.64,16.67,83.73,18.75,125.45,20.35q46.68,1.79,93.37,1.69h.68q46.68.09,93.37-1.69c41.72-1.6,86.81-3.68,125.45-20.35,16.22-7,31.11-17.32,41.22-32A82.65,82.65,0,0,0,543.35,184.67Z"/></g></g></svg>