<svg xmlns="http://www.w3.org/2000/svg" viewBox="0 0 512 512"><defs><style>.cls-1{fill:#5c6bc0;}</style></defs><title>github</title><g id="Layer_2" data-name="Layer 2"><g id="Capa_1" data-name="Capa 1"><path class="cls-1" d="M256,5.33C114.62,5.33,0,120.4,0,262.35A257,257,0,0,0,175.1,506.22c12.8,2.37,17.48-5.56,17.48-12.38,0-6.11-.23-22.27-.36-43.71C121,465.65,106,415.66,106,415.66c-11.61-29.69-28.41-37.6-28.41-37.6-23.27-15.93,1.73-15.61,1.73-15.61,25.69,1.82,39.2,26.49,39.2,26.49,22.84,39.27,59.93,27.94,74.52,21.35,2.31-16.61,8.93-27.94,16.26-34.37-56.83-6.5-116.61-28.54-116.61-127,0-28.06,10-51,26.37-69-2.66-6.5-11.42-32.64,2.5-68,0,0,21.5-6.91,70.4,26.34a241.66,241.66,0,0,1,128.19,0C369,105,390.46,112,390.46,112c14,35.39,5.19,61.51,2.56,68,16.42,18,26.31,40.93,26.31,69,0,98.72-59.84,120.45-116.87,126.82,9.19,7.94,17.38,23.62,17.38,47.58,0,34.37-.32,62.08-.32,70.5,0,6.88,4.61,14.88,17.6,12.35A257,257,0,0,0,512,262.35C512,120.4,397.38,5.33,256,5.33Z"/><rect class="cls-1" y="488.37" width="192.55" height="23.63"/><rect class="cls-1" x="319.56" y="485.04" width="192.44" height="26.96"/><polygon class="cls-1" points="123.15 463.24 158.85 496.02 0 496.02 0 0 65.19 0 65.19 162.37 46.46 245.49 61.1 390.66 96.27 436.9 123.15 463.24"/><polygon class="cls-1" points="376.02 496.02 512 496.02 512 0 436.32 124.9 444.01 370.76 357.29 436.32 376.02 496.02"/><polygon class="cls-1" points="48.8 125.49 176.41 44.71 318.07 56.41 434.65 109.1 473.19 114.95 512 30.07 512 0 57 0 48.8 125.49"/></g></g></svg>