<svg xmlns="http://www.w3.org/2000/svg" xmlns:xlink="http://www.w3.org/1999/xlink" viewBox="0 0 1400 1400"><defs><style>.cls-1{fill:url(#linear-gradient);}.cls-2{fill:url(#linear-gradient-2);}.cls-3{fill:#fff;}</style><linearGradient id="linear-gradient" y1="700" x2="1400" y2="700" gradientTransform="translate(0 1400) rotate(-90)" gradientUnits="userSpaceOnUse"><stop offset="0" stop-color="#df2545"/><stop offset="0.07" stop-color="#e34142"/><stop offset="0.22" stop-color="#ea783c"/><stop offset="0.36" stop-color="#f0a337"/><stop offset="0.49" stop-color="#f4c234"/><stop offset="0.59" stop-color="#f6d532"/><stop offset="0.67" stop-color="#f7dc31"/></linearGradient><linearGradient id="linear-gradient-2" x1="700" y1="1395" x2="700" y2="864.53" gradientUnits="userSpaceOnUse"><stop offset="0" stop-color="#df2545"/><stop offset="0.14" stop-color="#e55640"/><stop offset="0.27" stop-color="#eb803b"/><stop offset="0.41" stop-color="#efa238"/><stop offset="0.55" stop-color="#f3bd35"/><stop offset="0.7" stop-color="#f5d033"/><stop offset="0.84" stop-color="#f7db31"/><stop offset="1" stop-color="#f7df31"/></linearGradient></defs><title>oneadaylogo_2</title><g id="Layer_2" data-name="Layer 2"><g id="BG"><rect class="cls-1" width="1400" height="1400"/></g><g id="Sun"><g id="Layer_3" data-name="Layer 3"><path class="cls-2" d="M35.48,1395A379,379,0,0,0,5,1340V1303.7c64.4-6.27,131.7-31.28,205.57-76.39q2.94-1.8,5.88-3.64l1.26-.79.62-1.34q1.46-3.12,2.86-6.24c44-97.34,62.88-181,57.45-255.18C351.35,1003.2,432.52,1025,520.08,1025c4.12,0,8.31,0,12.45-.14,5.57-.12,11.36-.34,17.19-.66l1.49-.08,1.19-.88q3.61-2.64,7.17-5.32C633.8,962.28,679.89,912,700,864.53c23,50.18,68.24,100.24,137.92,152.63,4.21,3.18,8.67,6.48,13.27,9.81l1.47,1.06,1.81-.12c7.14-.5,13.74-1,20.17-1.52,115-9.3,193.79-28.61,246.44-60.54-5.9,66.58,11.16,144.32,53.26,243.36,2.11,5,4.09,9.54,6.06,14l.69,1.56,1.49.82c4.68,2.56,8.58,4.66,12.25,6.61,79.35,42.41,144.92,67,200.21,75.2v49.1c-6.38,12.23-12.44,25.15-18,38.47Z"/><path d="M700.09,876.24C724.62,924,769,971.59,834.85,1021.14c4.26,3.21,8.75,6.53,13.36,9.88l2.94,2.13,3.62-.25c7.17-.5,13.79-1,20.24-1.52,110-8.9,187.18-27,240.37-56.47-3.64,65.3,13.86,141.08,54.32,236.26,2.12,5,4.11,9.59,6.08,14.08l1.37,3.12,3,1.63c4.7,2.57,8.61,4.68,12.29,6.64,77.84,41.6,142.6,66.22,197.57,75.07v43.6c-5.75,11.09-11.23,22.72-16.34,34.69H38.69A383.07,383.07,0,0,0,10,1338.52v-30.31c63.79-7,130.37-32.17,203.17-76.63,1.94-1.19,3.89-2.39,5.93-3.67l2.51-1.57,1.25-2.69c1-2.19,2-4.41,2.88-6.29,42.56-94.07,61.77-175.53,58.44-248.25,71.41,40.44,150.67,60.92,235.9,60.92,4.16,0,8.39,0,12.55-.14,5.63-.12,11.47-.34,17.36-.66l3-.17,2.4-1.75c2.41-1.77,4.84-3.57,7.2-5.35,69.92-52.43,115.18-100.34,137.53-145.72m-.39-25.12C681.39,905.76,628.54,960,556.56,1014q-3.52,2.65-7.11,5.28-8.57.46-17,.65-6.2.14-12.34.14c-91,0-173.31-23.37-247.29-69.31,8.73,84.29-15.4,172.43-56.16,262.52-.93,2.06-1.87,4.13-2.83,6.19-2,1.22-3.89,2.42-5.84,3.61-69.61,42.51-139,70.32-208,76.09v42.43A372,372,0,0,1,32.23,1400H1380.31q9-21.86,19.69-42.24v-54.68c-61.73-8.22-130.5-36.59-202.86-75.26q-6.09-3.24-12.2-6.59-3.07-7-6-14c-37.8-88.92-61.55-174.3-51.77-251.22C1067.76,996,977,1013.09,874.2,1021.41q-10,.81-20.12,1.51-6.71-4.86-13.2-9.76c-68.06-51.18-118.83-104.7-141.18-162Z"/></g></g><g id="Clout"><path class="cls-3" d="M1096.84,458.39c-1.11-.34-2.2-.71-3.28-1.1.94-.05,1.88-.11,2.81-.18C1096.51,457.54,1096.67,458,1096.84,458.39Z"/><path class="cls-3" d="M1258,464.89a72,72,0,0,0,6-28.89c0-44.18-40.29-80-90-80-38.68,0-71.65,21.69-84.38,52.12C1027.58,413.08,981,434,981,459c0,6.65,3.29,13,9.3,18.87-37.67,8.41-63.3,25-63.3,44.13,0,27.61,53.5,50,119.5,50,24.11,0,46.56-3,65.33-8.13,12.91,13,31.72,21.13,52.67,21.13,30,0,55.71-16.8,65.85-40.47C1267.5,541.47,1296,523.6,1296,502,1296,486.19,1280.72,472.37,1258,464.89Zm-114.58,45.22c.14.43.3.86.47,1.28-1.11-.34-2.2-.71-3.28-1.1C1141.5,510.24,1142.44,510.18,1143.37,510.11Z"/><path class="cls-3" d="M1096.84,458.39c-1.11-.34-2.2-.71-3.28-1.1.94-.05,1.88-.11,2.81-.18C1096.51,457.54,1096.67,458,1096.84,458.39Z"/><path class="cls-3" d="M1096.84,458.39c-1.11-.34-2.2-.71-3.28-1.1.94-.05,1.88-.11,2.81-.18C1096.51,457.54,1096.67,458,1096.84,458.39Z"/><path class="cls-3" d="M753,401c0,49.15-118.2,89-264,89a718.65,718.65,0,0,1-115.41-8.94,149,149,0,0,1-190.21-9.17,101,101,0,0,1-18.67-199.18,148.8,148.8,0,0,1,105.45-59.07C286.31,161.89,338.55,124,400.5,124c63.88,0,117.44,40.29,131.75,94.52C621.32,224,691,273.19,691,333a76.59,76.59,0,0,1-.71,10.41C729.4,358.94,753,379,753,401Z"/></g></g></svg>