<svg xmlns="http://www.w3.org/2000/svg" viewBox="0 0 54.23 33.06"><defs><style>.cls-1{fill:#1d1d1b;}</style></defs><title>logo</title><g id="Layer_2" data-name="Layer 2"><g id="Layer_1-2" data-name="Layer 1"><path class="cls-1" d="M49,30.32a5.12,5.12,0,0,1,0-.61c0-.26,0-.51,0-.76v-.69l.07-.46q0-.23.12-1.29c.07-.71.16-1.47.26-2.29s.18-1.58.23-2.32.08-1.21.08-1.41c-.11-1.07-.33-2.46-.69-4.19a24.82,24.82,0,0,0-1.64-5.1,15.31,15.31,0,0,0-2.78-4.34,5.18,5.18,0,0,0-4-1.83,10.27,10.27,0,0,0-4.3,1,18,18,0,0,0-4.19,2.66,13.84,13.84,0,0,0-3.16,3.77,8,8,0,0,0-1.3,4.34,6.9,6.9,0,0,0,.38,2.25c.26.74.52,1.46.8,2.17s.55,1.45.8,2.21a7.25,7.25,0,0,1,.38,2.36,5.15,5.15,0,0,1-.34,1.83,1.54,1.54,0,0,1-1.64.91A2.56,2.56,0,0,1,25.94,27a19.94,19.94,0,0,1-1.6-4.07c-.49-1.65-1-3.41-1.53-5.29a33,33,0,0,0-2-5.3,13.34,13.34,0,0,0-2.89-4.07,6.14,6.14,0,0,0-4.38-1.6A7.56,7.56,0,0,0,9.9,7.5,7.87,7.87,0,0,0,7.27,9.83a11.85,11.85,0,0,0-1.6,3.27,12.51,12.51,0,0,0-.57,3.73,42,42,0,0,0,.42,6,41.74,41.74,0,0,1,.42,5.91,7.32,7.32,0,0,1-.23,1.94c-.15.58-.66.88-1.52.88a2.31,2.31,0,0,1-1.41-.42,3.5,3.5,0,0,1-.95-1.07,5.75,5.75,0,0,1-.61-1.45c-.15-.53-.28-1-.38-1.41Q1,24.07.88,21.4C.8,19.63.7,17.94.57,16.34S.32,13.13.19,11.5,0,8.15,0,6.32V5.79A7.51,7.51,0,0,1,0,5c0-.28,0-.53,0-.76v-.5a1.2,1.2,0,0,1,.38-.38A1.32,1.32,0,0,0,.84,3h.38a2.13,2.13,0,0,1,1.9.91,3.07,3.07,0,0,1,.61,2,17.84,17.84,0,0,1,2.17-2A9.22,9.22,0,0,1,7.73,2.74a5.72,5.72,0,0,1,1.83-.45c.63,0,1.41-.08,2.32-.08a15.87,15.87,0,0,1,4,.46A12,12,0,0,1,19.12,4a11.07,11.07,0,0,1,2.67,2.32,29.64,29.64,0,0,1,2.43,3.2.5.5,0,0,1,.19,0,.54.54,0,0,0,.19,0,4.1,4.1,0,0,0,.77-.73c.45-.48,1.06-1.06,1.82-1.75s1.65-1.45,2.67-2.28a33.54,33.54,0,0,1,3.2-2.33A22.91,22.91,0,0,1,36.49.72,8.94,8.94,0,0,1,39.91,0a9.71,9.71,0,0,1,4.61,1.07,13,13,0,0,1,3.62,2.85,18.77,18.77,0,0,1,2.74,4,30.3,30.3,0,0,1,1.91,4.65,30.81,30.81,0,0,1,1.1,4.76,30.09,30.09,0,0,1,.34,4.34c0,.51,0,1.38,0,2.63a26.72,26.72,0,0,1-.38,3.81,12.05,12.05,0,0,1-1.11,3.42,2.35,2.35,0,0,1-2.13,1.49,1.47,1.47,0,0,1-1-.27,1.68,1.68,0,0,1-.46-.65,2.23,2.23,0,0,1-.15-.83Z"/></g></g></svg>