<svg xmlns="http://www.w3.org/2000/svg" viewBox="0 0 1405 1405"><defs><style>.cls-1{fill:#8ec3c8;}.cls-2{fill:none;}</style></defs><title>multikeylogo_1</title><g id="Layer_2" data-name="Layer 2"><g id="Layer_1-2" data-name="Layer 1"><rect class="cls-1" x="640.44" y="800.5" width="37.46" height="224.83"/><rect class="cls-1" x="719.71" y="800.5" width="36.34" height="245.53"/><ellipse class="cls-1" cx="658.98" cy="558.28" rx="27.35" ry="41.02"/><ellipse class="cls-1" cx="741.02" cy="558.28" rx="27.35" ry="41.02"/><circle class="cls-1" cx="737.89" cy="1046.03" r="29.63"/><circle class="cls-1" cx="659.17" cy="1048.29" r="29.63"/><path class="cls-1" d="M1022,565.85c0-177.86-144.18-322-322-322S378,388,378,565.85c0,128.41,75.18,239.24,183.92,290.94v231.68a36.47,36.47,0,1,0,37.45,0V871.8l.44.15-.4-71.45c-93.2-38-158.5-127.28-158.5-234.13,0-140.88,114.21-255.09,255.09-255.09s255.1,114.21,255.1,255.09c0,104.69-63.08,194.63-153.29,234v72.42l.1,0v215.76a36.47,36.47,0,1,0,37.45,0V858.1C945.57,807,1022,695.35,1022,565.85Z"/><rect class="cls-2" width="1405" height="1405"/></g></g></svg>