<svg xmlns="http://www.w3.org/2000/svg" viewBox="0 0 1401 1401"><defs><style>.cls-1{fill:#dba837;opacity:0.31;}.cls-1,.cls-2,.cls-3,.cls-4{stroke:#000;stroke-miterlimit:10;}.cls-2{fill:#fdce4e;}.cls-2,.cls-3,.cls-4{stroke-width:5px;}.cls-3{fill:#e6b860;}.cls-4{fill:#de7f43;}</style></defs><title>amigologo</title><g id="Layer_2" data-name="Layer 2"><g id="Layer_1-2" data-name="Layer 1"><rect class="cls-1" x="0.5" y="0.5" width="1400" height="1400"/><g id="Moustache2"><path d="M704.86,1041.66a64.3,64.3,0,0,0-2.34,40.18c4.82,17.72,18.18,32.44,34.36,40.72,19.72,10.13,40.34,6.83,61.61,8.38,12.17.91,24.93,1.94,37,4a167.77,167.77,0,0,1,68,27.31,207.46,207.46,0,0,1,19,15.37c5.64,5.15,10.83,12.52,17,16.71a42.56,42.56,0,0,0-.4-9.83c-2.34-56.4-36.77-111.09-83.57-141.35a194.27,194.27,0,0,0-20.2-11.37c-2.8-1.39-5.64-2.7-8.49-3.93-25.74-11.14-53.66-19.7-81.91-15.73C726.39,1014.75,712.16,1023.69,704.86,1041.66Z"/><path d="M687.61,1042.13a64,64,0,0,1,2.34,40.16c-4.84,17.73-18.18,32.43-34.37,40.74-19.73,10.13-40.35,6.83-61.6,8.38-12.19.89-24.92,1.94-37,4a167.5,167.5,0,0,0-67.87,27.31,198.84,198.84,0,0,0-19,15.38c-5.64,5.15-10.86,12.52-17,16.71-.65-3.07.26-6.67.38-9.85,2.34-56.4,36.76-111.07,83.57-141.33a190,190,0,0,1,20.22-11.37q4.15-2.05,8.49-3.93c25.74-11.16,53.66-19.73,81.91-15.73C666.11,1015.26,680.34,1024.11,687.61,1042.13Z"/></g><g id="Hat2"><path class="cls-2" d="M918,631Q700.58,750.83,483,631.07h0c10.67-82.79,25.74-166.5,56.16-244.59,16.76-43.37,38.82-86,70.53-120.59,1.36-1.48,2.72-2.95,4.12-4.4s2.88-3,4.35-4.47l4.68-4.52,4.8-4.52c1.66-1.52,3.33-3,5-4.49s3.44-3,5.2-4.42,3.55-2.9,5.35-4.33,3.66-2.81,5.5-4.19,3.75-2.69,5.64-4,3.82-2.58,5.76-3.79,3.89-2.34,5.87-3.56c11.21-6.51,24.83-14,38.2-12.94,8.82.72,16.61,5.22,24.15,9.36A234.13,234.13,0,0,1,750.47,229a270.75,270.75,0,0,1,40.89,36.91c31.7,34.54,53.82,77.06,70.6,120.52C892.22,464.55,907.48,548.25,918,631Z"/><path class="cls-3" d="M1324,676.29a195.25,195.25,0,0,1-25.93,55.29c-23.21,33.73-57.38,57.43-94.61,73.49-88.67,38.24-192.16,43-287.85,46.68q-107.13,4.1-214.29,3.89h-1.54q-107.14.21-214.29-3.89c-95.76-3.67-199.25-8.44-287.85-46.68-37.23-16.06-71.4-39.79-94.61-73.49A195.22,195.22,0,0,1,76.9,676.29c-1.76-5.95-12.41-68.95-10.49-68.52,118.84,26,256.58,35.38,416.56,23.4Q700.6,750.84,918,631.05a.24.24,0,0,1,0,.12c160,12,297.72,2.59,416.55-23.4C1336.53,607.34,1325.88,670.34,1324,676.29Z"/><path class="cls-4" d="M1331.87,632.52c-2.81,18.21-6.74,40.35-7.75,43.77a195.37,195.37,0,0,1-26,55.29c-23.21,33.73-57.38,57.43-94.61,73.49-88.67,38.24-192.16,43-287.85,46.68q-107.13,4.1-214.29,3.89h-1.54q-107.14.21-214.29-3.89c-95.76-3.67-199.25-8.44-287.85-46.68-37.23-16.06-71.4-39.79-94.61-73.49A195.22,195.22,0,0,1,76.9,676.29c-1-3.42-4.94-25.56-7.75-43.77a193.1,193.1,0,0,0,22,42.9c23.66,34.38,58.51,58.5,96.46,74.89,90.43,39,196,43.87,293.58,47.62q109.24,4.19,218.5,4h1.59q109.25.21,218.51-4c97.63-3.75,203.15-8.61,293.57-47.62,38-16.39,72.81-40.54,96.47-74.89A193.1,193.1,0,0,0,1331.87,632.52Z"/></g></g></g></svg>