<svg xmlns="http://www.w3.org/2000/svg" viewBox="0 0 351.65 400.68"><defs><style>.cls-1{fill:#fff;}</style></defs><title>githublogo</title><g id="Layer_2" data-name="Layer 2"><g id="Layer_1-2" data-name="Layer 1"><path class="cls-1" d="M234.78,264.5c9.19,7.94,17.38,23.62,17.38,47.58,0,26.37-.19,48.81-.28,61.64,0,3.89,0,6.9,0,8.86,0,.37,0,.75,0,1.13v17h-127V383.46c0-.31,0-.63,0-.94,0-1.34,0-3.16,0-5.4v-.07c-.07-8-.23-21.54-.33-38.24-71.22,15.52-86.22-34.47-86.22-34.47-11.61-29.69-28.41-37.6-28.41-37.6-23.27-15.93,1.73-15.61,1.73-15.61,25.69,1.82,39.2,26.49,39.2,26.49,22.84,39.27,59.93,27.94,74.52,21.35,2.31-16.61,8.93-27.94,16.26-34.37C84.79,258.1,25,236.06,25,137.6c0-28.06,10-51,26.37-69C48.72,62.1,40,36,53.88.6c0,0,21.5-6.91,70.4,26.34a241.66,241.66,0,0,1,128.19,0C301.32-6.32,322.78.68,322.78.68c14,35.39,5.19,61.51,2.56,68,16.42,18,26.31,40.93,26.31,69C351.65,236.4,291.81,258.13,234.78,264.5Z"/></g></g></svg>