<svg xmlns="http://www.w3.org/2000/svg" viewBox="0 0 318.05 316.76"><defs><style>.cls-1{fill:#fff;}</style></defs><title>linkedinlogo</title><g id="Layer_2" data-name="Layer 2"><g id="Layer_1-2" data-name="Layer 1"><path class="cls-1" d="M318.05,171.92V312.39h0a4.37,4.37,0,0,1-4.36,4.37H256.52a4.36,4.36,0,0,1-4.36-4.36V194.57a36.88,36.88,0,0,0-36.9-36.88h-.41c-20.28.23-36.45,17.07-36.45,37.35V312.36a4.37,4.37,0,0,1-4.37,4.37H117a4.36,4.36,0,0,1-4.36-4.36V109.24a4.37,4.37,0,0,1,4.37-4.36h55.79a4.36,4.36,0,0,1,4.32,4.36v23.42a4.11,4.11,0,0,1,.6.08,64.42,64.42,0,0,1,56.4-33.24h11.47A72.43,72.43,0,0,1,318.05,171.92Z"/><path class="cls-1" d="M76.45,37.69c0,22-18.3,38.55-38.3,38C17.84,76.14,0,59.18,0,37.54a38.23,38.23,0,0,1,76.45.15Z"/><path class="cls-1" d="M71.09,115.42V306.24A10.5,10.5,0,0,1,60.6,316.75H15.86A10.52,10.52,0,0,1,5.35,306.24V115.42a10.53,10.53,0,0,1,10.51-10.51H60.58A10.52,10.52,0,0,1,71.09,115.42Z"/></g></g></svg>